<svg xmlns="http://www.w3.org/2000/svg" viewBox="0 0 128 128" width="100%" height="100%">
  <defs>
    <linearGradient id="bg-910" x1="0%" y1="0%" x2="100%" y2="100%">
      <stop offset="0%" stop-color="#06B6D4"/>
      <stop offset="100%" stop-color="#0E7490"/>
    </linearGradient>
  </defs>
  <rect width="128" height="128" rx="28" fill="url(#bg-910)"/>
  <g transform="translate(16,16) scale(0.75)">
    <rect x="0.0" y="0.0" width="24.0" height="24.0" rx="3.5999999999999996" fill="#7C3AED" />
  
    <path d="M22 12.54C20.196 12.195 19.299 11.46 18.477 9.6C17.99 10.296 17.375 11.168 17.557 12C17.585 12.238 17.237 13 17 13H3C3 18.208 6.164 20 9.196 20C13.32 20.022 17.024 18.624 19.05 15C20.196 14.899 21.346 13.495 22 12.54Z" stroke="#FFFFFF" stroke-width="2" stroke-linecap="round" stroke-linejoin="round"/>
    <path d="M5 10H8V13H5V10Z" stroke="#FFFFFF" stroke-width="2" stroke-linecap="round" stroke-linejoin="round"/>
    <path d="M8 10H11V13H8V10Z" stroke="#FFFFFF" stroke-width="2" stroke-linecap="round" stroke-linejoin="round"/>
    <path d="M11 10H14V13H11V10Z" stroke="#FFFFFF" stroke-width="2" stroke-linecap="round" stroke-linejoin="round"/>
    <path d="M8 7H11V10H8V7Z" stroke="#FFFFFF" stroke-width="2" stroke-linecap="round" stroke-linejoin="round"/>
    <path d="M11 7H14V10H11V7Z" stroke="#FFFFFF" stroke-width="2" stroke-linecap="round" stroke-linejoin="round"/>
    <path d="M11 4H14V7H11V4Z" stroke="#FFFFFF" stroke-width="2" stroke-linecap="round" stroke-linejoin="round"/>
    <path d="M4.57104 18C6.07104 18 6.61804 17.926 7.52904 17.22" stroke="#FFFFFF" stroke-width="2" stroke-linecap="round" stroke-linejoin="round"/>
    <path d="M10 16V16.01" stroke="#FFFFFF" stroke-width="2" stroke-linecap="round" stroke-linejoin="round"/>
  </g>
</svg>