<svg width="33" height="34" viewBox="0 0 33 34" fill="none" xmlns="http://www.w3.org/2000/svg">
<path fill-rule="evenodd" clip-rule="evenodd" d="M32.2917 8C32.2917 6.11 31.5417 4.298 30.2052 2.9615C28.8687 1.625 27.0567 0.875 25.1667 0.875H7.16669C5.27669 0.875 3.46469 1.625 2.12819 2.9615C0.791687 4.298 0.041687 6.11 0.041687 8V26C0.041687 27.89 0.791687 29.702 2.12819 31.0385C3.46469 32.375 5.27669 33.125 7.16669 33.125H25.1667C27.0567 33.125 28.8687 32.375 30.2052 31.0385C31.5417 29.702 32.2917 27.89 32.2917 26V8ZM30.0417 8V26C30.0417 27.293 29.5287 28.5335 28.6137 29.447C27.7002 30.362 26.4597 30.875 25.1667 30.875H7.16669C5.87369 30.875 4.63319 30.362 3.71969 29.447C2.80469 28.5335 2.29169 27.293 2.29169 26V8C2.29169 6.707 2.80469 5.4665 3.71969 4.553C4.63319 3.638 5.87369 3.125 7.16669 3.125H25.1667C26.4597 3.125 27.7002 3.638 28.6137 4.553C29.5287 5.4665 30.0417 6.707 30.0417 8Z" fill="currentColor"/>
<path fill-rule="evenodd" clip-rule="evenodd" d="M16.8987 11.2445L13.2987 22.0445C13.1037 22.634 13.4217 23.2715 14.0112 23.468C14.6007 23.663 15.2382 23.345 15.4347 22.7555L19.0347 11.9555C19.2297 11.366 18.9117 10.7285 18.3222 10.532C17.7327 10.337 17.0952 10.655 16.8987 11.2445Z" fill="currentColor"/>
<path fill-rule="evenodd" clip-rule="evenodd" d="M20.7717 14.195L23.5752 17L20.7717 19.805C20.3322 20.243 20.3322 20.957 20.7717 21.395C21.2097 21.8345 21.9237 21.8345 22.3617 21.395L25.9617 17.795C26.4012 17.3555 26.4012 16.6445 25.9617 16.205L22.3617 12.605C21.9237 12.1655 21.2097 12.1655 20.7717 12.605C20.3322 13.043 20.3322 13.757 20.7717 14.195Z" fill="currentColor"/>
<path fill-rule="evenodd" clip-rule="evenodd" d="M9.97168 12.605L6.37168 16.205C5.93218 16.6445 5.93218 17.3555 6.37168 17.795L9.97168 21.395C10.4097 21.8345 11.1237 21.8345 11.5617 21.395C12.0012 20.957 12.0012 20.243 11.5617 19.805L8.75818 17L11.5617 14.195C12.0012 13.757 12.0012 13.043 11.5617 12.605C11.1237 12.1655 10.4097 12.1655 9.97168 12.605Z" fill="currentColor"/>
</svg>
