<svg width="322" height="322" viewBox="0 0 322 322" fill="currentColor" xmlns="http://www.w3.org/2000/svg">
    <path fill-rule="evenodd" clip-rule="evenodd" d="M274.074 20.2C277.874 16.7 282.074 13.7 286.474 11C290.874 8.4 295.574 6.2 300.474 4.5C305.274 2.8 310.274 1.5 315.374 0.8L321.374 0V321.7L315.374 320.9C310.274 320.2 305.274 318.9 300.474 317.2C295.574 315.5 290.874 313.3 286.474 310.7C282.074 308 277.874 304.9 274.074 301.4C270.274 297.9 266.874 294.1 263.874 289.9L262.474 288.1L261.174 286.2L259.374 287.7L257.674 288.9C250.774 294.2 243.374 298.9 235.774 303C228.074 307.1 220.074 310.5 211.874 313.3C203.574 316 195.174 318.1 186.574 319.5C177.974 320.9 169.274 321.6 160.574 321.6C108.874 321.6 60.3741 296.6 30.1741 254.6C0.0741138 212.7 -8.12588 158.7 8.37412 109.7C24.7741 60.7 63.8741 22.6 113.274 7.3C162.674 -8 216.374 1.4 257.674 32.6L259.374 34L261.174 35.3L263.874 31.7C266.874 27.5 270.274 23.7 274.074 20.2ZM194.574 242.7C205.274 238.3 215.074 231.7 223.274 223.5C231.474 215.3 238.074 205.5 242.474 194.8C246.974 184 249.274 172.5 249.274 160.9C249.274 125 227.674 92.7 194.574 78.9C161.374 65.2 123.274 72.8 97.9741 98.2C72.5741 123.5 64.9741 161.6 78.6741 194.8C92.4741 227.9 124.774 249.5 160.574 249.5C172.274 249.5 183.774 247.2 194.574 242.7Z" fill="currentColor"/>
    </svg>
    